<svg xmlns="http://www.w3.org/2000/svg" width="1600" height="1000" viewBox="0 0 1600 1000" role="img" aria-label="Illustrative placeholder — replace with licensed photography">
  <defs><linearGradient id="g24" x1="0" y1="0" x2="0" y2="1"><stop offset="0%" stop-color="#F3E9D2"/><stop offset="50%" stop-color="#DCE3D5"/><stop offset="100%" stop-color="#B9C7B2"/></linearGradient></defs>
  <rect width="1600" height="1000" fill="url(#g24)"/>
  <circle cx="1200" cy="230" r="100" fill="#E9B44C" opacity="0.7"/>
  <path d="M0 460 Q 100 341.7674472009246 200 483.29302111963017 Q 300 350.143879133666 400 479.9424483465336 Q 500 391.18482057306187 600 463.5260717707753 Q 700 438.0012517054073 800 444.7994993178371 Q 900 459.9201933013352 1000 436.03192267946594 Q 1100 442.5808915818747 1200 442.9676433672501 Q 1300 397.34363242591724 1400 461.0625470296331 Q 1500 353.84676025492826 1600 478.4612958980287 Q 1700 340.588360556708 1800 483.7646557773168 L 1600 1000 L 0 1000 Z" fill="#8B9678" opacity="0.8"/>
  <rect x="0" y="600" width="1600" height="230" fill="#7C8FA0"/>
  <path d="M0 660 q 60 -14 120 0 q 60 -14 120 0 q 60 -14 120 0 q 60 -14 120 0 q 60 -14 120 0 q 60 -14 120 0 q 60 -14 120 0 q 60 -14 120 0 q 60 -14 120 0 q 60 -14 120 0 q 60 -14 120 0 q 60 -14 120 0 q 60 -14 120 0 q 60 -14 120 0" stroke="#F7F2E9" stroke-width="5" fill="none" opacity="0.5"/><path d="M0 706 q 60 14 120 0 q 60 14 120 0 q 60 14 120 0 q 60 14 120 0 q 60 14 120 0 q 60 14 120 0 q 60 14 120 0 q 60 14 120 0 q 60 14 120 0 q 60 14 120 0 q 60 14 120 0 q 60 14 120 0 q 60 14 120 0 q 60 14 120 0" stroke="#F7F2E9" stroke-width="5" fill="none" opacity="0.38"/><path d="M0 752 q 60 -14 120 0 q 60 -14 120 0 q 60 -14 120 0 q 60 -14 120 0 q 60 -14 120 0 q 60 -14 120 0 q 60 -14 120 0 q 60 -14 120 0 q 60 -14 120 0 q 60 -14 120 0 q 60 -14 120 0 q 60 -14 120 0 q 60 -14 120 0 q 60 -14 120 0" stroke="#F7F2E9" stroke-width="5" fill="none" opacity="0.26"/>
  <rect x="0" y="830" width="1600" height="170" fill="#9BA97F"/>
  <g fill="#26221B" opacity="0.85"><ellipse cx="620" cy="700" rx="46" ry="18"/><circle cx="662" cy="682" r="12"/><path d="M672 678 q 14 -2 16 8" stroke="#26221B" stroke-width="5" fill="none"/></g>
  <g fill="#2E3B2C" transform="translate(230 820) scale(1.3)">
    <path d="M0 0 L6 -70 L10 -70 L18 0 Z"/>
    <path d="M8 -70 L-52 -96 M8 -70 L64 -100 M8 -70 L4 -104" stroke="#2E3B2C" stroke-width="5" fill="none"/>
    <ellipse cx="-48" cy="-98" rx="46" ry="12"/>
    <ellipse cx="56" cy="-102" rx="52" ry="13"/>
    <ellipse cx="4" cy="-112" rx="40" ry="11"/>
  </g>
  <g stroke="#26221B" stroke-width="3.5999999999999996" fill="none" opacity="0.75">
    <path d="M880 250 q 9.6 -9.6 19.2 0 q 9.6 -9.6 19.2 0"/>
    <path d="M952 218.8 q 8.4 -8.4 16.8 0 q 8.4 -8.4 16.8 0"/>
    <path d="M820 202 q 7.199999999999999 -7.199999999999999 14.399999999999999 0 q 7.199999999999999 -7.199999999999999 14.399999999999999 0"/>
  </g>
</svg>