<svg xmlns="http://www.w3.org/2000/svg" width="1600" height="1000" viewBox="0 0 1600 1000" role="img" aria-label="Illustrative placeholder — replace with licensed photography">
  <defs><linearGradient id="g26" x1="0" y1="0" x2="0" y2="1"><stop offset="0%" stop-color="#F3E9D2"/><stop offset="50%" stop-color="#DCE3D5"/><stop offset="100%" stop-color="#B9C7B2"/></linearGradient></defs>
  <rect width="1600" height="1000" fill="url(#g26)"/>
  <circle cx="320" cy="230" r="110" fill="#E9B44C" opacity="0.75"/>
  <rect x="0" y="520" width="1600" height="260" fill="#7C8FA0"/>
  <path d="M0 560 q 60 -14 120 0 q 60 -14 120 0 q 60 -14 120 0 q 60 -14 120 0 q 60 -14 120 0 q 60 -14 120 0 q 60 -14 120 0 q 60 -14 120 0 q 60 -14 120 0 q 60 -14 120 0 q 60 -14 120 0 q 60 -14 120 0 q 60 -14 120 0 q 60 -14 120 0" stroke="#F7F2E9" stroke-width="5" fill="none" opacity="0.5"/><path d="M0 606 q 60 14 120 0 q 60 14 120 0 q 60 14 120 0 q 60 14 120 0 q 60 14 120 0 q 60 14 120 0 q 60 14 120 0 q 60 14 120 0 q 60 14 120 0 q 60 14 120 0 q 60 14 120 0 q 60 14 120 0 q 60 14 120 0 q 60 14 120 0" stroke="#F7F2E9" stroke-width="5" fill="none" opacity="0.38"/><path d="M0 652 q 60 -14 120 0 q 60 -14 120 0 q 60 -14 120 0 q 60 -14 120 0 q 60 -14 120 0 q 60 -14 120 0 q 60 -14 120 0 q 60 -14 120 0 q 60 -14 120 0 q 60 -14 120 0 q 60 -14 120 0 q 60 -14 120 0 q 60 -14 120 0 q 60 -14 120 0" stroke="#F7F2E9" stroke-width="5" fill="none" opacity="0.26"/>
  <path d="M1050 520 l120 0 l-18 -44 l-84 0 Z" fill="#F7F2E9"/><rect x="1104" y="430" width="7" height="48" fill="#26221B"/><path d="M1111 430 l60 30 l-60 8 Z" fill="#B4531F"/>
  <rect x="0" y="780" width="1600" height="220" fill="#E6D3A8"/>
  <g fill="#8A7048"><rect x="430" y="620" width="200" height="160" /><rect x="410" y="600" width="240" height="26"/><rect x="470" y="660" width="40" height="120" fill="#5C4A30"/><rect x="550" y="660" width="46" height="60" fill="#5C4A30"/></g>
  <g transform="translate(300 780) scale(1.6)">
    <path d="M-4 0 Q 2 -34 6 -60 L14 -58 Q 8 -30 8 0 Z" fill="#2E3B2C"/>
    <path d="M0 -60 Q 43.12292942501463 -78.05322676819756 76.44519307161684 -51.25854944501731" stroke="#2E3B2C" stroke-width="7" fill="none" stroke-linecap="round"/><path d="M0 -60 Q 27.35083860390923 -54.66692361490067 48.48557752511182 -25.533615976390728" stroke="#2E3B2C" stroke-width="7" fill="none" stroke-linecap="round"/><path d="M0 -60 Q -5.669157749003084 -46.333407581901255 -10.049870555050921 -16.366748340091384" stroke="#2E3B2C" stroke-width="7" fill="none" stroke-linecap="round"/><path d="M0 -60 Q -35.25031908406508 -62.06111423584174 -62.489202012660826 -33.66722565942592" stroke="#2E3B2C" stroke-width="7" fill="none" stroke-linecap="round"/><path d="M0 -60 Q -43.9619466120243 -84.33677350266838 -77.9325417213158 -58.17045085293522" stroke="#2E3B2C" stroke-width="7" fill="none" stroke-linecap="round"/><path d="M0 -60 Q 38.6136327231764 -105.17702154416813 68.45143982744908 -81.09472369858493" stroke="#2E3B2C" stroke-width="7" fill="none" stroke-linecap="round"/>
    <circle cx="8" cy="-62" r="7" fill="#2E3B2C"/>
  </g>
  <g transform="translate(1350 790) scale(1.9)">
    <path d="M-4 0 Q 2 -34 6 -60 L14 -58 Q 8 -30 8 0 Z" fill="#2E3B2C"/>
    <path d="M0 -60 Q 43.12292942501463 -78.05322676819756 76.44519307161684 -51.25854944501731" stroke="#2E3B2C" stroke-width="7" fill="none" stroke-linecap="round"/><path d="M0 -60 Q 27.35083860390923 -54.66692361490067 48.48557752511182 -25.533615976390728" stroke="#2E3B2C" stroke-width="7" fill="none" stroke-linecap="round"/><path d="M0 -60 Q -5.669157749003084 -46.333407581901255 -10.049870555050921 -16.366748340091384" stroke="#2E3B2C" stroke-width="7" fill="none" stroke-linecap="round"/><path d="M0 -60 Q -35.25031908406508 -62.06111423584174 -62.489202012660826 -33.66722565942592" stroke="#2E3B2C" stroke-width="7" fill="none" stroke-linecap="round"/><path d="M0 -60 Q -43.9619466120243 -84.33677350266838 -77.9325417213158 -58.17045085293522" stroke="#2E3B2C" stroke-width="7" fill="none" stroke-linecap="round"/><path d="M0 -60 Q 38.6136327231764 -105.17702154416813 68.45143982744908 -81.09472369858493" stroke="#2E3B2C" stroke-width="7" fill="none" stroke-linecap="round"/>
    <circle cx="8" cy="-62" r="7" fill="#2E3B2C"/>
  </g>
</svg>