<svg xmlns="http://www.w3.org/2000/svg" width="1600" height="1000" viewBox="0 0 1600 1000" role="img" aria-label="Illustrative placeholder — replace with licensed photography">
  <defs><linearGradient id="g23" x1="0" y1="0" x2="0" y2="1"><stop offset="0%" stop-color="#F3E9D2"/><stop offset="50%" stop-color="#E4CFA3"/><stop offset="100%" stop-color="#D9B98C"/></linearGradient></defs>
  <rect width="1600" height="1000" fill="url(#g23)"/>
  <path d="M500 470 L800 210 L1100 470 Z" fill="#6C7A8A"/>
  <path d="M713 285 L800 210 L887 285 L845 285 L800 250 L755 285 Z" fill="#F7F2E9"/>
  <rect x="0" y="470" width="1600" height="530" fill="#C9B183"/>
  <rect x="0" y="760" width="1600" height="240" fill="#AD8F5F"/>
  <g fill="#3A2A14"><ellipse cx="700" cy="830" rx="70" ry="42"/><rect x="640" y="850" width="18" height="52"/><rect x="740" y="850" width="18" height="52"/><circle cx="768" cy="800" r="26"/><path d="M780 810 q 30 10 26 56 q -16 4 -22 -10" /><path d="M745 780 q -20 -28 -46 -22" stroke="#3A2A14" stroke-width="8" fill="none"/></g>
  <g fill="#2E3B2C" transform="translate(300 760) scale(1.3)">
    <path d="M0 0 L6 -70 L10 -70 L18 0 Z"/>
    <path d="M8 -70 L-52 -96 M8 -70 L64 -100 M8 -70 L4 -104" stroke="#2E3B2C" stroke-width="5" fill="none"/>
    <ellipse cx="-48" cy="-98" rx="46" ry="12"/>
    <ellipse cx="56" cy="-102" rx="52" ry="13"/>
    <ellipse cx="4" cy="-112" rx="40" ry="11"/>
  </g>
  <g stroke="#26221B" stroke-width="3" fill="none" opacity="0.75">
    <path d="M1150 240 q 8 -8 16 0 q 8 -8 16 0"/>
    <path d="M1210 214 q 7 -7 14 0 q 7 -7 14 0"/>
    <path d="M1100 200 q 6 -6 12 0 q 6 -6 12 0"/>
  </g>
</svg>