<svg xmlns="http://www.w3.org/2000/svg" width="1600" height="1000" viewBox="0 0 1600 1000" role="img" aria-label="Illustrative placeholder — replace with licensed photography">
  <defs><linearGradient id="g4" x1="0" y1="0" x2="0" y2="1"><stop offset="0%" stop-color="#F3E9D2"/><stop offset="50%" stop-color="#E4CFA3"/><stop offset="100%" stop-color="#D9B98C"/></linearGradient></defs>
  <rect width="1600" height="1000" fill="url(#g4)"/>
  <circle cx="1200" cy="260" r="120" fill="#E9B44C" opacity="0.7"/>
  <path d="M0 540 Q 100 510.5966806969449 200 533.7613277212221 Q 300 474.24401284264053 400 548.3023948629437 Q 500 451.49015949777913 600 557.4039362008883 Q 700 457.242888173769 800 555.1028447304924 Q 900 487.7331519158812 1000 542.9067392336475 Q 1100 522.9844765709214 1200 528.8062093716314 Q 1300 539.9010574652083 1400 522.0395770139168 Q 1500 527.399565052842 1600 527.0401739788632 Q 1700 493.67067102378803 1800 540.5317315904848 L 1600 1000 L 0 1000 Z" fill="#8B9678" opacity="0.7"/>
  <rect x="0" y="640" width="1600" height="360" fill="#C4A878"/>
  <rect x="0" y="820" width="1600" height="180" fill="#A5875A"/>
  <g fill="#2E3B2C" transform="translate(280 800) scale(1.5)">
    <path d="M0 0 L6 -70 L10 -70 L18 0 Z"/>
    <path d="M8 -70 L-52 -96 M8 -70 L64 -100 M8 -70 L4 -104" stroke="#2E3B2C" stroke-width="5" fill="none"/>
    <ellipse cx="-48" cy="-98" rx="46" ry="12"/>
    <ellipse cx="56" cy="-102" rx="52" ry="13"/>
    <ellipse cx="4" cy="-112" rx="40" ry="11"/>
  </g>
  <g transform="translate(880 830) scale(1.5)">
    <rect x="0" y="0" width="150" height="52" rx="9" fill="#4A5A40"/>
    <rect x="14" y="-26" width="108" height="30" rx="6" fill="#4A5A40"/>
    <rect x="22" y="-20" width="26" height="18" rx="3" fill="#F7F2E9" opacity="0.85"/>
    <rect x="56" y="-20" width="26" height="18" rx="3" fill="#F7F2E9" opacity="0.85"/>
    <rect x="90" y="-20" width="24" height="18" rx="3" fill="#F7F2E9" opacity="0.85"/>
    <rect x="10" y="-34" width="116" height="10" rx="4" fill="#26221B"/>
    <circle cx="36" cy="56" r="17" fill="#26221B"/>
    <circle cx="114" cy="56" r="17" fill="#26221B"/>
    <circle cx="36" cy="56" r="7" fill="#D9C39A"/>
    <circle cx="114" cy="56" r="7" fill="#D9C39A"/>
  </g>
  <g stroke="#26221B" stroke-width="3" fill="none" opacity="0.75">
    <path d="M600 260 q 8 -8 16 0 q 8 -8 16 0"/>
    <path d="M660 234 q 7 -7 14 0 q 7 -7 14 0"/>
    <path d="M550 220 q 6 -6 12 0 q 6 -6 12 0"/>
  </g>
</svg>