<svg xmlns="http://www.w3.org/2000/svg" width="1600" height="1000" viewBox="0 0 1600 1000" role="img" aria-label="Illustrative placeholder — replace with licensed photography">
  <defs><linearGradient id="g11" x1="0" y1="0" x2="0" y2="1"><stop offset="0%" stop-color="#F3E9D2"/><stop offset="50%" stop-color="#E4CFA3"/><stop offset="100%" stop-color="#D9B98C"/></linearGradient></defs>
  <rect width="1600" height="1000" fill="url(#g11)"/>
  <circle cx="1220" cy="240" r="110" fill="#E9B44C" opacity="0.65"/>
  <path d="M0 500 Q 100 462.74402637257333 200 486.90238945097065 Q 300 497.81181842706457 400 472.87527262917416 Q 500 488.4509676352169 600 476.6196129459132 Q 700 440.7944742057807 800 495.6822103176877 Q 900 386.0657056135948 1000 517.573717754562 Q 1100 360.12161083308104 1200 527.9513556667675 Q 1300 379.96012544113216 1400 520.0159498235471 Q 1500 432.58354047539154 1600 498.96658380984337 Q 1700 483.51428305634533 1800 478.59428677746183 L 1600 1000 L 0 1000 Z" fill="#8B9678" opacity="0.8"/>
  <path d="M0 580 Q 100 502.79664780091485 200 594.8813408796341 Q 300 525.8600923011968 400 585.6559630795213 Q 500 558.1876580653228 600 572.7249367738708 Q 700 578.5991156474445 800 564.5603537410223 Q 900 573.7213778789142 1000 566.5114488484344 Q 1100 546.7502190988249 1200 577.2999123604701 Q 1300 515.3564820656694 1400 589.8574071737322 Q 1500 500.10857450852785 1600 595.9565701965888 Q 1700 510.99655206554405 1800 591.6013791737823 L 1600 1000 L 0 1000 Z" fill="#4A5A40" opacity="0.7"/>
  <rect x="0" y="660" width="1600" height="340" fill="#B79868"/>
  <path d="M700 1000 L820 660 L860 660 L1050 1000 Z" fill="#6E5638"/>
  <path d="M868 1000 L870 660 L878 660 L920 1000 Z" fill="#F7F2E9" opacity="0.5"/>
  <g transform="translate(810 700) scale(1)">
    <rect x="0" y="0" width="150" height="52" rx="9" fill="#4A5A40"/>
    <rect x="14" y="-26" width="108" height="30" rx="6" fill="#4A5A40"/>
    <rect x="22" y="-20" width="26" height="18" rx="3" fill="#F7F2E9" opacity="0.85"/>
    <rect x="56" y="-20" width="26" height="18" rx="3" fill="#F7F2E9" opacity="0.85"/>
    <rect x="90" y="-20" width="24" height="18" rx="3" fill="#F7F2E9" opacity="0.85"/>
    <rect x="10" y="-34" width="116" height="10" rx="4" fill="#26221B"/>
    <circle cx="36" cy="56" r="17" fill="#26221B"/>
    <circle cx="114" cy="56" r="17" fill="#26221B"/>
    <circle cx="36" cy="56" r="7" fill="#D9C39A"/>
    <circle cx="114" cy="56" r="7" fill="#D9C39A"/>
  </g>
  <g fill="#2E3B2C" transform="translate(300 640) scale(1.2)">
    <path d="M0 0 L6 -70 L10 -70 L18 0 Z"/>
    <path d="M8 -70 L-52 -96 M8 -70 L64 -100 M8 -70 L4 -104" stroke="#2E3B2C" stroke-width="5" fill="none"/>
    <ellipse cx="-48" cy="-98" rx="46" ry="12"/>
    <ellipse cx="56" cy="-102" rx="52" ry="13"/>
    <ellipse cx="4" cy="-112" rx="40" ry="11"/>
  </g>
</svg>