<svg xmlns="http://www.w3.org/2000/svg" width="1600" height="1000" viewBox="0 0 1600 1000" role="img" aria-label="Illustrative placeholder — replace with licensed photography">
  <defs><linearGradient id="g9" x1="0" y1="0" x2="0" y2="1"><stop offset="0%" stop-color="#3A4A3A"/><stop offset="50%" stop-color="#2E3B2C"/><stop offset="100%" stop-color="#232D22"/></linearGradient></defs>
  <rect width="1600" height="1000" fill="url(#g9)"/>
  <circle cx="1200" cy="230" r="90" fill="#F7F2E9" opacity="0.9"/>
  <circle cx="1170" cy="210" r="80" fill="#3A4A3A"/>
  <rect x="0" y="700" width="1600" height="300" fill="#1D2418"/>
  <g transform="translate(700 780)"><rect x="-90" y="0" width="180" height="12" rx="4" fill="#D9C39A"/><rect x="-70" y="12" width="10" height="46" fill="#D9C39A"/><rect x="60" y="12" width="10" height="46" fill="#D9C39A"/><circle cx="-30" cy="-12" r="9" fill="#E9B44C"/><circle cx="10" cy="-12" r="9" fill="#E9B44C"/><circle cx="46" cy="-14" r="7" fill="#B4531F"/></g>
  <g fill="#141A11" transform="translate(280 760) scale(1.4)">
    <path d="M0 0 L6 -70 L10 -70 L18 0 Z"/>
    <path d="M8 -70 L-52 -96 M8 -70 L64 -100 M8 -70 L4 -104" stroke="#141A11" stroke-width="5" fill="none"/>
    <ellipse cx="-48" cy="-98" rx="46" ry="12"/>
    <ellipse cx="56" cy="-102" rx="52" ry="13"/>
    <ellipse cx="4" cy="-112" rx="40" ry="11"/>
  </g>
  <circle cx="450" cy="330" r="3" fill="#F7F2E9"/><circle cx="620" cy="180" r="2.5" fill="#F7F2E9"/><circle cx="890" cy="260" r="3" fill="#F7F2E9"/><circle cx="320" cy="150" r="2" fill="#F7F2E9"/><circle cx="1010" cy="120" r="2.5" fill="#F7F2E9"/>
</svg>