<svg xmlns="http://www.w3.org/2000/svg" width="1600" height="1000" viewBox="0 0 1600 1000" role="img" aria-label="Illustrative placeholder — replace with licensed photography">
  <defs><linearGradient id="g6" x1="0" y1="0" x2="0" y2="1"><stop offset="0%" stop-color="#E9B44C"/><stop offset="50%" stop-color="#D97B3F"/><stop offset="100%" stop-color="#B4531F"/></linearGradient></defs>
  <rect width="1600" height="1000" fill="url(#g6)"/>
  <circle cx="820" cy="360" r="170" fill="#E9B44C" opacity="0.85"/>
  <path d="M0 600 Q 100 558.2327020667251 200 600.70691917331 Q 300 588.3898094239843 400 588.6440762304063 Q 500 599.9466088610167 600 584.0213564555934 Q 700 585.3313683915054 800 589.8674526433979 Q 900 554.1196356706354 1000 602.3521457317458 Q 1100 526.7605736590294 1200 613.2957705363882 Q 1300 521.179169813431 1400 615.5283320746275 Q 1500 541.0322232551365 1600 607.5871106979454 Q 1700 573.3124995340056 1800 594.6750001863978 L 1600 1000 L 0 1000 Z" fill="#7A4A28" opacity="0.75"/>
  <rect x="0" y="700" width="1600" height="300" fill="#4A2F17"/>
  <g fill="#241709" transform="translate(820 640) scale(2.2)">
    <ellipse cx="0" cy="0" rx="26" ry="12"/>
    <rect x="-22" y="6" width="6" height="18"/>
    <rect x="14" y="6" width="6" height="18"/>
    <path d="M20 -6 L36 -14 L38 -8 L26 0 Z"/>
    <path d="M34 -16 q 6 -6 10 -2"/>
  </g>
  <g fill="#241709" transform="translate(300 700) scale(1.3)">
    <path d="M0 0 L6 -70 L10 -70 L18 0 Z"/>
    <path d="M8 -70 L-52 -96 M8 -70 L64 -100 M8 -70 L4 -104" stroke="#241709" stroke-width="5" fill="none"/>
    <ellipse cx="-48" cy="-98" rx="46" ry="12"/>
    <ellipse cx="56" cy="-102" rx="52" ry="13"/>
    <ellipse cx="4" cy="-112" rx="40" ry="11"/>
  </g>
  <g transform="translate(1150 700) scale(1.1)">
    <rect x="0" y="0" width="150" height="52" rx="9" fill="#3A2A14"/>
    <rect x="14" y="-26" width="108" height="30" rx="6" fill="#3A2A14"/>
    <rect x="22" y="-20" width="26" height="18" rx="3" fill="#F7F2E9" opacity="0.85"/>
    <rect x="56" y="-20" width="26" height="18" rx="3" fill="#F7F2E9" opacity="0.85"/>
    <rect x="90" y="-20" width="24" height="18" rx="3" fill="#F7F2E9" opacity="0.85"/>
    <rect x="10" y="-34" width="116" height="10" rx="4" fill="#26221B"/>
    <circle cx="36" cy="56" r="17" fill="#26221B"/>
    <circle cx="114" cy="56" r="17" fill="#26221B"/>
    <circle cx="36" cy="56" r="7" fill="#D9C39A"/>
    <circle cx="114" cy="56" r="7" fill="#D9C39A"/>
  </g>
  <g stroke="#26221B" stroke-width="3.3000000000000003" fill="none" opacity="0.75">
    <path d="M1250 250 q 8.8 -8.8 17.6 0 q 8.8 -8.8 17.6 0"/>
    <path d="M1316 221.4 q 7.700000000000001 -7.700000000000001 15.400000000000002 0 q 7.700000000000001 -7.700000000000001 15.400000000000002 0"/>
    <path d="M1195 206 q 6.6000000000000005 -6.6000000000000005 13.200000000000001 0 q 6.6000000000000005 -6.6000000000000005 13.200000000000001 0"/>
  </g>
</svg>