<svg xmlns="http://www.w3.org/2000/svg" width="1600" height="1000" viewBox="0 0 1600 1000" role="img" aria-label="Illustrative placeholder — replace with licensed photography">
  <defs><linearGradient id="g14" x1="0" y1="0" x2="0" y2="1"><stop offset="0%" stop-color="#E9B44C"/><stop offset="50%" stop-color="#D97B3F"/><stop offset="100%" stop-color="#B4531F"/></linearGradient></defs>
  <rect width="1600" height="1000" fill="url(#g14)"/>
  <circle cx="1150" cy="350" r="150" fill="#E9B44C" opacity="0.9"/>
  <rect x="60" y="460" width="120" height="200" fill="#2A1B0E"/><rect x="200" y="340" width="90" height="320" fill="#2A1B0E"/><rect x="310" y="500" width="140" height="160" fill="#2A1B0E"/><rect x="470" y="400" width="110" height="260" fill="#2A1B0E"/><rect x="600" y="280" width="100" height="380" fill="#2A1B0E"/><rect x="720" y="440" width="150" height="220" fill="#2A1B0E"/><rect x="880" y="360" width="120" height="300" fill="#2A1B0E"/><rect x="1020" y="480" width="100" height="180" fill="#2A1B0E"/><rect x="1140" y="320" width="130" height="340" fill="#2A1B0E"/><rect x="1290" y="420" width="110" height="240" fill="#2A1B0E"/><rect x="1420" y="500" width="140" height="160" fill="#2A1B0E"/><rect x="74" y="478" width="10" height="14" fill="#E9B44C" opacity="0.55"/><rect x="109.29411764705883" y="518" width="10" height="14" fill="#E9B44C" opacity="0.55"/><rect x="144.58823529411765" y="558" width="10" height="14" fill="#E9B44C" opacity="0.55"/><rect x="74" y="598" width="10" height="14" fill="#E9B44C" opacity="0.55"/><rect x="240.47058823529412" y="358" width="10" height="14" fill="#E9B44C" opacity="0.55"/><rect x="266.94117647058823" y="422" width="10" height="14" fill="#E9B44C" opacity="0.55"/><rect x="214" y="486" width="10" height="14" fill="#E9B44C" opacity="0.55"/><rect x="240.47058823529412" y="550" width="10" height="14" fill="#E9B44C" opacity="0.55"/><rect x="406.3529411764706" y="518" width="10" height="14" fill="#E9B44C" opacity="0.55"/><rect x="324" y="550" width="10" height="14" fill="#E9B44C" opacity="0.55"/><rect x="365.1764705882353" y="582" width="10" height="14" fill="#E9B44C" opacity="0.55"/><rect x="406.3529411764706" y="614" width="10" height="14" fill="#E9B44C" opacity="0.55"/><rect x="484" y="418" width="10" height="14" fill="#E9B44C" opacity="0.55"/><rect x="516.3529411764706" y="470" width="10" height="14" fill="#E9B44C" opacity="0.55"/><rect x="548.7058823529412" y="522" width="10" height="14" fill="#E9B44C" opacity="0.55"/><rect x="484" y="574" width="10" height="14" fill="#E9B44C" opacity="0.55"/><rect x="643.4117647058823" y="298" width="10" height="14" fill="#E9B44C" opacity="0.55"/><rect x="672.8235294117648" y="374" width="10" height="14" fill="#E9B44C" opacity="0.55"/><rect x="614" y="450" width="10" height="14" fill="#E9B44C" opacity="0.55"/><rect x="643.4117647058823" y="526" width="10" height="14" fill="#E9B44C" opacity="0.55"/><rect x="822.2352941176471" y="458" width="10" height="14" fill="#E9B44C" opacity="0.55"/><rect x="734" y="502" width="10" height="14" fill="#E9B44C" opacity="0.55"/><rect x="778.1176470588235" y="546" width="10" height="14" fill="#E9B44C" opacity="0.55"/><rect x="822.2352941176471" y="590" width="10" height="14" fill="#E9B44C" opacity="0.55"/><rect x="894" y="378" width="10" height="14" fill="#E9B44C" opacity="0.55"/><rect x="929.2941176470588" y="438" width="10" height="14" fill="#E9B44C" opacity="0.55"/><rect x="964.5882352941177" y="498" width="10" height="14" fill="#E9B44C" opacity="0.55"/><rect x="894" y="558" width="10" height="14" fill="#E9B44C" opacity="0.55"/><rect x="1063.4117647058824" y="498" width="10" height="14" fill="#E9B44C" opacity="0.55"/><rect x="1092.8235294117646" y="534" width="10" height="14" fill="#E9B44C" opacity="0.55"/><rect x="1034" y="570" width="10" height="14" fill="#E9B44C" opacity="0.55"/><rect x="1063.4117647058824" y="606" width="10" height="14" fill="#E9B44C" opacity="0.55"/><rect x="1230.4705882352941" y="338" width="10" height="14" fill="#E9B44C" opacity="0.55"/><rect x="1154" y="406" width="10" height="14" fill="#E9B44C" opacity="0.55"/><rect x="1192.235294117647" y="474" width="10" height="14" fill="#E9B44C" opacity="0.55"/><rect x="1230.4705882352941" y="542" width="10" height="14" fill="#E9B44C" opacity="0.55"/><rect x="1304" y="438" width="10" height="14" fill="#E9B44C" opacity="0.55"/><rect x="1336.3529411764705" y="486" width="10" height="14" fill="#E9B44C" opacity="0.55"/><rect x="1368.7058823529412" y="534" width="10" height="14" fill="#E9B44C" opacity="0.55"/><rect x="1304" y="582" width="10" height="14" fill="#E9B44C" opacity="0.55"/><rect x="1475.1764705882354" y="518" width="10" height="14" fill="#E9B44C" opacity="0.55"/><rect x="1516.3529411764705" y="550" width="10" height="14" fill="#E9B44C" opacity="0.55"/><rect x="1434" y="582" width="10" height="14" fill="#E9B44C" opacity="0.55"/><rect x="1475.1764705882354" y="614" width="10" height="14" fill="#E9B44C" opacity="0.55"/>
  <rect x="0" y="660" width="1600" height="340" fill="#4A2F17"/>
  <g fill="#241709" transform="translate(260 850) scale(1.5)">
    <path d="M0 0 L6 -70 L10 -70 L18 0 Z"/>
    <path d="M8 -70 L-52 -96 M8 -70 L64 -100 M8 -70 L4 -104" stroke="#241709" stroke-width="5" fill="none"/>
    <ellipse cx="-48" cy="-98" rx="46" ry="12"/>
    <ellipse cx="56" cy="-102" rx="52" ry="13"/>
    <ellipse cx="4" cy="-112" rx="40" ry="11"/>
  </g>
  <g fill="#241709" transform="translate(600 800) scale(1.6)">
    <ellipse cx="0" cy="0" rx="26" ry="12"/>
    <rect x="-22" y="6" width="6" height="18"/>
    <rect x="14" y="6" width="6" height="18"/>
    <path d="M20 -6 L36 -14 L38 -8 L26 0 Z"/>
    <path d="M34 -16 q 6 -6 10 -2"/>
  </g>
  <g stroke="#26221B" stroke-width="3" fill="none" opacity="0.75">
    <path d="M500 220 q 8 -8 16 0 q 8 -8 16 0"/>
    <path d="M560 194 q 7 -7 14 0 q 7 -7 14 0"/>
    <path d="M450 180 q 6 -6 12 0 q 6 -6 12 0"/>
  </g>
</svg>