<svg xmlns="http://www.w3.org/2000/svg" width="1600" height="1000" viewBox="0 0 1600 1000" role="img" aria-label="Illustrative placeholder — replace with licensed photography">
  <defs><linearGradient id="g13" x1="0" y1="0" x2="0" y2="1"><stop offset="0%" stop-color="#E9B44C"/><stop offset="50%" stop-color="#D97B3F"/><stop offset="100%" stop-color="#B4531F"/></linearGradient></defs>
  <rect width="1600" height="1000" fill="url(#g13)"/>
  <circle cx="500" cy="400" r="170" fill="#E9B44C" opacity="0.9"/>
  <path d="M0 620 Q 100 615.2310654089597 200 603.9075738364161 Q 300 616.9744830806683 400 603.2102067677328 Q 500 591.2172473160396 600 613.5131010735842 Q 700 554.8348682405853 800 628.0660527037659 Q 900 531.6641896868043 1000 637.3343241252783 Q 1100 536.8860728357073 1200 635.245570865717 Q 1300 567.0792677224761 1400 623.1682929110095 Q 1500 602.4619324332712 1600 609.0152270266916 Q 1700 619.8522115061483 1800 602.0591153975407 L 1600 1000 L 0 1000 Z" fill="#7A4A28" opacity="0.8"/>
  <rect x="0" y="720" width="1600" height="280" fill="#4A2F17"/>
  <g fill="#241709" transform="translate(180 660) scale(0.9)">
    <ellipse cx="0" cy="0" rx="26" ry="12"/>
    <rect x="-22" y="6" width="6" height="18"/>
    <rect x="14" y="6" width="6" height="18"/>
    <path d="M20 -6 L36 -14 L38 -8 L26 0 Z"/>
    <path d="M34 -16 q 6 -6 10 -2"/>
  </g><g fill="#241709" transform="translate(420 674) scale(1.02)">
    <ellipse cx="0" cy="0" rx="26" ry="12"/>
    <rect x="-22" y="6" width="6" height="18"/>
    <rect x="14" y="6" width="6" height="18"/>
    <path d="M20 -6 L36 -14 L38 -8 L26 0 Z"/>
    <path d="M34 -16 q 6 -6 10 -2"/>
  </g><g fill="#241709" transform="translate(660 660) scale(1.1400000000000001)">
    <ellipse cx="0" cy="0" rx="26" ry="12"/>
    <rect x="-22" y="6" width="6" height="18"/>
    <rect x="14" y="6" width="6" height="18"/>
    <path d="M20 -6 L36 -14 L38 -8 L26 0 Z"/>
    <path d="M34 -16 q 6 -6 10 -2"/>
  </g><g fill="#241709" transform="translate(780 674) scale(0.9)">
    <ellipse cx="0" cy="0" rx="26" ry="12"/>
    <rect x="-22" y="6" width="6" height="18"/>
    <rect x="14" y="6" width="6" height="18"/>
    <path d="M20 -6 L36 -14 L38 -8 L26 0 Z"/>
    <path d="M34 -16 q 6 -6 10 -2"/>
  </g><g fill="#241709" transform="translate(1020 660) scale(1.02)">
    <ellipse cx="0" cy="0" rx="26" ry="12"/>
    <rect x="-22" y="6" width="6" height="18"/>
    <rect x="14" y="6" width="6" height="18"/>
    <path d="M20 -6 L36 -14 L38 -8 L26 0 Z"/>
    <path d="M34 -16 q 6 -6 10 -2"/>
  </g><g fill="#241709" transform="translate(1260 674) scale(1.1400000000000001)">
    <ellipse cx="0" cy="0" rx="26" ry="12"/>
    <rect x="-22" y="6" width="6" height="18"/>
    <rect x="14" y="6" width="6" height="18"/>
    <path d="M20 -6 L36 -14 L38 -8 L26 0 Z"/>
    <path d="M34 -16 q 6 -6 10 -2"/>
  </g><g fill="#241709" transform="translate(1380 660) scale(0.9)">
    <ellipse cx="0" cy="0" rx="26" ry="12"/>
    <rect x="-22" y="6" width="6" height="18"/>
    <rect x="14" y="6" width="6" height="18"/>
    <path d="M20 -6 L36 -14 L38 -8 L26 0 Z"/>
    <path d="M34 -16 q 6 -6 10 -2"/>
  </g>
  <g fill="#241709" transform="translate(1200 860) scale(1.7)">
    <path d="M0 0 L6 -70 L10 -70 L18 0 Z"/>
    <path d="M8 -70 L-52 -96 M8 -70 L64 -100 M8 -70 L4 -104" stroke="#241709" stroke-width="5" fill="none"/>
    <ellipse cx="-48" cy="-98" rx="46" ry="12"/>
    <ellipse cx="56" cy="-102" rx="52" ry="13"/>
    <ellipse cx="4" cy="-112" rx="40" ry="11"/>
  </g>
  <g stroke="#26221B" stroke-width="3.3000000000000003" fill="none" opacity="0.75">
    <path d="M950 260 q 8.8 -8.8 17.6 0 q 8.8 -8.8 17.6 0"/>
    <path d="M1016 231.4 q 7.700000000000001 -7.700000000000001 15.400000000000002 0 q 7.700000000000001 -7.700000000000001 15.400000000000002 0"/>
    <path d="M895 216 q 6.6000000000000005 -6.6000000000000005 13.200000000000001 0 q 6.6000000000000005 -6.6000000000000005 13.200000000000001 0"/>
  </g>
</svg>