<svg xmlns="http://www.w3.org/2000/svg" width="1600" height="1000" viewBox="0 0 1600 1000" role="img" aria-label="Illustrative placeholder — replace with licensed photography">
  <defs><linearGradient id="g15" x1="0" y1="0" x2="0" y2="1"><stop offset="0%" stop-color="#F3E9D2"/><stop offset="50%" stop-color="#DCE3D5"/><stop offset="100%" stop-color="#B9C7B2"/></linearGradient></defs>
  <rect width="1600" height="1000" fill="url(#g15)"/>
  <circle cx="400" cy="240" r="120" fill="#E9B44C" opacity="0.8"/>
  <rect x="0" y="540" width="1600" height="260" fill="#7C8FA0"/>
  <path d="M0 580 q 60 -14 120 0 q 60 -14 120 0 q 60 -14 120 0 q 60 -14 120 0 q 60 -14 120 0 q 60 -14 120 0 q 60 -14 120 0 q 60 -14 120 0 q 60 -14 120 0 q 60 -14 120 0 q 60 -14 120 0 q 60 -14 120 0 q 60 -14 120 0 q 60 -14 120 0" stroke="#F7F2E9" stroke-width="5" fill="none" opacity="0.5"/><path d="M0 626 q 60 14 120 0 q 60 14 120 0 q 60 14 120 0 q 60 14 120 0 q 60 14 120 0 q 60 14 120 0 q 60 14 120 0 q 60 14 120 0 q 60 14 120 0 q 60 14 120 0 q 60 14 120 0 q 60 14 120 0 q 60 14 120 0 q 60 14 120 0" stroke="#F7F2E9" stroke-width="5" fill="none" opacity="0.38"/><path d="M0 672 q 60 -14 120 0 q 60 -14 120 0 q 60 -14 120 0 q 60 -14 120 0 q 60 -14 120 0 q 60 -14 120 0 q 60 -14 120 0 q 60 -14 120 0 q 60 -14 120 0 q 60 -14 120 0 q 60 -14 120 0 q 60 -14 120 0 q 60 -14 120 0 q 60 -14 120 0" stroke="#F7F2E9" stroke-width="5" fill="none" opacity="0.26"/>
  <path d="M1100 540 l90 0 l-14 -36 l-62 0 Z" fill="#F7F2E9"/><rect x="1140" y="470" width="6" height="40" fill="#26221B"/><path d="M1146 470 l52 26 l-52 6 Z" fill="#B4531F"/>
  <rect x="0" y="800" width="1600" height="200" fill="#E6D3A8"/>
  <g transform="translate(1320 800) scale(1.9)">
    <path d="M-4 0 Q 2 -34 6 -60 L14 -58 Q 8 -30 8 0 Z" fill="#2E3B2C"/>
    <path d="M0 -60 Q 43.12292942501463 -78.05322676819756 76.44519307161684 -51.25854944501731" stroke="#2E3B2C" stroke-width="7" fill="none" stroke-linecap="round"/><path d="M0 -60 Q 27.35083860390923 -54.66692361490067 48.48557752511182 -25.533615976390728" stroke="#2E3B2C" stroke-width="7" fill="none" stroke-linecap="round"/><path d="M0 -60 Q -5.669157749003084 -46.333407581901255 -10.049870555050921 -16.366748340091384" stroke="#2E3B2C" stroke-width="7" fill="none" stroke-linecap="round"/><path d="M0 -60 Q -35.25031908406508 -62.06111423584174 -62.489202012660826 -33.66722565942592" stroke="#2E3B2C" stroke-width="7" fill="none" stroke-linecap="round"/><path d="M0 -60 Q -43.9619466120243 -84.33677350266838 -77.9325417213158 -58.17045085293522" stroke="#2E3B2C" stroke-width="7" fill="none" stroke-linecap="round"/><path d="M0 -60 Q 38.6136327231764 -105.17702154416813 68.45143982744908 -81.09472369858493" stroke="#2E3B2C" stroke-width="7" fill="none" stroke-linecap="round"/>
    <circle cx="8" cy="-62" r="7" fill="#2E3B2C"/>
  </g>
  <g transform="translate(180 810) scale(1.4)">
    <path d="M-4 0 Q 2 -34 6 -60 L14 -58 Q 8 -30 8 0 Z" fill="#2E3B2C"/>
    <path d="M0 -60 Q 43.12292942501463 -78.05322676819756 76.44519307161684 -51.25854944501731" stroke="#2E3B2C" stroke-width="7" fill="none" stroke-linecap="round"/><path d="M0 -60 Q 27.35083860390923 -54.66692361490067 48.48557752511182 -25.533615976390728" stroke="#2E3B2C" stroke-width="7" fill="none" stroke-linecap="round"/><path d="M0 -60 Q -5.669157749003084 -46.333407581901255 -10.049870555050921 -16.366748340091384" stroke="#2E3B2C" stroke-width="7" fill="none" stroke-linecap="round"/><path d="M0 -60 Q -35.25031908406508 -62.06111423584174 -62.489202012660826 -33.66722565942592" stroke="#2E3B2C" stroke-width="7" fill="none" stroke-linecap="round"/><path d="M0 -60 Q -43.9619466120243 -84.33677350266838 -77.9325417213158 -58.17045085293522" stroke="#2E3B2C" stroke-width="7" fill="none" stroke-linecap="round"/><path d="M0 -60 Q 38.6136327231764 -105.17702154416813 68.45143982744908 -81.09472369858493" stroke="#2E3B2C" stroke-width="7" fill="none" stroke-linecap="round"/>
    <circle cx="8" cy="-62" r="7" fill="#2E3B2C"/>
  </g>
</svg>