<svg xmlns="http://www.w3.org/2000/svg" width="1600" height="1000" viewBox="0 0 1600 1000" role="img" aria-label="Illustrative placeholder — replace with licensed photography">
  <defs><linearGradient id="g17" x1="0" y1="0" x2="0" y2="1"><stop offset="0%" stop-color="#3A4A3A"/><stop offset="50%" stop-color="#2E3B2C"/><stop offset="100%" stop-color="#232D22"/></linearGradient></defs>
  <rect width="1600" height="1000" fill="url(#g17)"/>
  <circle cx="330" cy="220" r="70" fill="#F7F2E9" opacity="0.85"/>
  <rect x="60" y="560" width="120" height="200" fill="#1A2016"/><rect x="200" y="440" width="90" height="320" fill="#1A2016"/><rect x="310" y="600" width="140" height="160" fill="#1A2016"/><rect x="470" y="500" width="110" height="260" fill="#1A2016"/><rect x="600" y="380" width="100" height="380" fill="#1A2016"/><rect x="720" y="540" width="150" height="220" fill="#1A2016"/><rect x="880" y="460" width="120" height="300" fill="#1A2016"/><rect x="1020" y="580" width="100" height="180" fill="#1A2016"/><rect x="1140" y="420" width="130" height="340" fill="#1A2016"/><rect x="1290" y="520" width="110" height="240" fill="#1A2016"/><rect x="1420" y="600" width="140" height="160" fill="#1A2016"/><rect x="74" y="578" width="10" height="14" fill="#E9B44C" opacity="0.55"/><rect x="109.29411764705883" y="618" width="10" height="14" fill="#E9B44C" opacity="0.55"/><rect x="144.58823529411765" y="658" width="10" height="14" fill="#E9B44C" opacity="0.55"/><rect x="74" y="698" width="10" height="14" fill="#E9B44C" opacity="0.55"/><rect x="240.47058823529412" y="458" width="10" height="14" fill="#E9B44C" opacity="0.55"/><rect x="266.94117647058823" y="522" width="10" height="14" fill="#E9B44C" opacity="0.55"/><rect x="214" y="586" width="10" height="14" fill="#E9B44C" opacity="0.55"/><rect x="240.47058823529412" y="650" width="10" height="14" fill="#E9B44C" opacity="0.55"/><rect x="406.3529411764706" y="618" width="10" height="14" fill="#E9B44C" opacity="0.55"/><rect x="324" y="650" width="10" height="14" fill="#E9B44C" opacity="0.55"/><rect x="365.1764705882353" y="682" width="10" height="14" fill="#E9B44C" opacity="0.55"/><rect x="406.3529411764706" y="714" width="10" height="14" fill="#E9B44C" opacity="0.55"/><rect x="484" y="518" width="10" height="14" fill="#E9B44C" opacity="0.55"/><rect x="516.3529411764706" y="570" width="10" height="14" fill="#E9B44C" opacity="0.55"/><rect x="548.7058823529412" y="622" width="10" height="14" fill="#E9B44C" opacity="0.55"/><rect x="484" y="674" width="10" height="14" fill="#E9B44C" opacity="0.55"/><rect x="643.4117647058823" y="398" width="10" height="14" fill="#E9B44C" opacity="0.55"/><rect x="672.8235294117648" y="474" width="10" height="14" fill="#E9B44C" opacity="0.55"/><rect x="614" y="550" width="10" height="14" fill="#E9B44C" opacity="0.55"/><rect x="643.4117647058823" y="626" width="10" height="14" fill="#E9B44C" opacity="0.55"/><rect x="822.2352941176471" y="558" width="10" height="14" fill="#E9B44C" opacity="0.55"/><rect x="734" y="602" width="10" height="14" fill="#E9B44C" opacity="0.55"/><rect x="778.1176470588235" y="646" width="10" height="14" fill="#E9B44C" opacity="0.55"/><rect x="822.2352941176471" y="690" width="10" height="14" fill="#E9B44C" opacity="0.55"/><rect x="894" y="478" width="10" height="14" fill="#E9B44C" opacity="0.55"/><rect x="929.2941176470588" y="538" width="10" height="14" fill="#E9B44C" opacity="0.55"/><rect x="964.5882352941177" y="598" width="10" height="14" fill="#E9B44C" opacity="0.55"/><rect x="894" y="658" width="10" height="14" fill="#E9B44C" opacity="0.55"/><rect x="1063.4117647058824" y="598" width="10" height="14" fill="#E9B44C" opacity="0.55"/><rect x="1092.8235294117646" y="634" width="10" height="14" fill="#E9B44C" opacity="0.55"/><rect x="1034" y="670" width="10" height="14" fill="#E9B44C" opacity="0.55"/><rect x="1063.4117647058824" y="706" width="10" height="14" fill="#E9B44C" opacity="0.55"/><rect x="1230.4705882352941" y="438" width="10" height="14" fill="#E9B44C" opacity="0.55"/><rect x="1154" y="506" width="10" height="14" fill="#E9B44C" opacity="0.55"/><rect x="1192.235294117647" y="574" width="10" height="14" fill="#E9B44C" opacity="0.55"/><rect x="1230.4705882352941" y="642" width="10" height="14" fill="#E9B44C" opacity="0.55"/><rect x="1304" y="538" width="10" height="14" fill="#E9B44C" opacity="0.55"/><rect x="1336.3529411764705" y="586" width="10" height="14" fill="#E9B44C" opacity="0.55"/><rect x="1368.7058823529412" y="634" width="10" height="14" fill="#E9B44C" opacity="0.55"/><rect x="1304" y="682" width="10" height="14" fill="#E9B44C" opacity="0.55"/><rect x="1475.1764705882354" y="618" width="10" height="14" fill="#E9B44C" opacity="0.55"/><rect x="1516.3529411764705" y="650" width="10" height="14" fill="#E9B44C" opacity="0.55"/><rect x="1434" y="682" width="10" height="14" fill="#E9B44C" opacity="0.55"/><rect x="1475.1764705882354" y="714" width="10" height="14" fill="#E9B44C" opacity="0.55"/>
  <g fill="#141A11" transform="translate(950 210) scale(1.2) rotate(-12)">
    <path d="M0 0 L150 0 Q170 0 176 8 Q170 16 150 16 L0 16 Q-14 8 0 0 Z"/>
    <path d="M60 4 L28 -44 L44 -44 L88 4 Z"/>
    <path d="M60 12 L36 48 L50 48 L88 12 Z"/>
    <path d="M142 2 L128 -22 L140 -22 L158 2 Z"/>
  </g>
  <rect x="0" y="760" width="1600" height="240" fill="#141A11"/>
  <rect x="0" y="880" width="1600" height="8" fill="#E9B44C" opacity="0.35"/>
</svg>