<svg xmlns="http://www.w3.org/2000/svg" width="1600" height="1000" viewBox="0 0 1600 1000" role="img" aria-label="Illustrative placeholder — replace with licensed photography">
  <defs><linearGradient id="g1" x1="0" y1="0" x2="0" y2="1"><stop offset="0%" stop-color="#E9B44C"/><stop offset="50%" stop-color="#D97B3F"/><stop offset="100%" stop-color="#B4531F"/></linearGradient></defs>
  <rect width="1600" height="1000" fill="url(#g1)"/>
  <circle cx="1130" cy="430" r="190" fill="#E9B44C" opacity="0.9"/>
  <g stroke="#26221B" stroke-width="3.5999999999999996" fill="none" opacity="0.75">
    <path d="M420 240 q 9.6 -9.6 19.2 0 q 9.6 -9.6 19.2 0"/>
    <path d="M492 208.8 q 8.4 -8.4 16.8 0 q 8.4 -8.4 16.8 0"/>
    <path d="M360 192 q 7.199999999999999 -7.199999999999999 14.399999999999999 0 q 7.199999999999999 -7.199999999999999 14.399999999999999 0"/>
  </g>
  <path d="M0 560 Q 100 491.40325658973 200 571.438697364108 Q 300 480.0697052008585 400 575.9721179196566 Q 500 494.89750514469114 600 570.0409979421236 Q 700 526.17184500366 800 557.531261998536 Q 900 553.4025431533961 1000 546.6389827386415 Q 1100 558.7487129960517 1200 544.5005148015794 Q 1300 538.707674968615 1400 552.516930012554 Q 1500 506.40982641839304 1600 565.4360694326427 Q 1700 483.01592680041415 1800 574.7936292798344 L 1600 1000 L 0 1000 Z" fill="#7A4A28" opacity="0.8"/>
  <rect x="0" y="650" width="1600" height="350" fill="#5D3A1E"/>
  <rect x="0" y="780" width="1600" height="220" fill="#3F2A15"/>
  <g fill="#2A1B0E" transform="translate(180 700) scale(0.9)">
    <ellipse cx="0" cy="0" rx="26" ry="12"/>
    <rect x="-22" y="6" width="6" height="18"/>
    <rect x="14" y="6" width="6" height="18"/>
    <path d="M20 -6 L36 -14 L38 -8 L26 0 Z"/>
    <path d="M34 -16 q 6 -6 10 -2"/>
  </g><g fill="#2A1B0E" transform="translate(420 714) scale(1.02)">
    <ellipse cx="0" cy="0" rx="26" ry="12"/>
    <rect x="-22" y="6" width="6" height="18"/>
    <rect x="14" y="6" width="6" height="18"/>
    <path d="M20 -6 L36 -14 L38 -8 L26 0 Z"/>
    <path d="M34 -16 q 6 -6 10 -2"/>
  </g><g fill="#2A1B0E" transform="translate(660 700) scale(1.1400000000000001)">
    <ellipse cx="0" cy="0" rx="26" ry="12"/>
    <rect x="-22" y="6" width="6" height="18"/>
    <rect x="14" y="6" width="6" height="18"/>
    <path d="M20 -6 L36 -14 L38 -8 L26 0 Z"/>
    <path d="M34 -16 q 6 -6 10 -2"/>
  </g><g fill="#2A1B0E" transform="translate(780 714) scale(0.9)">
    <ellipse cx="0" cy="0" rx="26" ry="12"/>
    <rect x="-22" y="6" width="6" height="18"/>
    <rect x="14" y="6" width="6" height="18"/>
    <path d="M20 -6 L36 -14 L38 -8 L26 0 Z"/>
    <path d="M34 -16 q 6 -6 10 -2"/>
  </g><g fill="#2A1B0E" transform="translate(1020 700) scale(1.02)">
    <ellipse cx="0" cy="0" rx="26" ry="12"/>
    <rect x="-22" y="6" width="6" height="18"/>
    <rect x="14" y="6" width="6" height="18"/>
    <path d="M20 -6 L36 -14 L38 -8 L26 0 Z"/>
    <path d="M34 -16 q 6 -6 10 -2"/>
  </g><g fill="#2A1B0E" transform="translate(1260 714) scale(1.1400000000000001)">
    <ellipse cx="0" cy="0" rx="26" ry="12"/>
    <rect x="-22" y="6" width="6" height="18"/>
    <rect x="14" y="6" width="6" height="18"/>
    <path d="M20 -6 L36 -14 L38 -8 L26 0 Z"/>
    <path d="M34 -16 q 6 -6 10 -2"/>
  </g><g fill="#2A1B0E" transform="translate(1380 700) scale(0.9)">
    <ellipse cx="0" cy="0" rx="26" ry="12"/>
    <rect x="-22" y="6" width="6" height="18"/>
    <rect x="14" y="6" width="6" height="18"/>
    <path d="M20 -6 L36 -14 L38 -8 L26 0 Z"/>
    <path d="M34 -16 q 6 -6 10 -2"/>
  </g>
  <g fill="#241709" transform="translate(210 780) scale(1.7)">
    <path d="M0 0 L6 -70 L10 -70 L18 0 Z"/>
    <path d="M8 -70 L-52 -96 M8 -70 L64 -100 M8 -70 L4 -104" stroke="#241709" stroke-width="5" fill="none"/>
    <ellipse cx="-48" cy="-98" rx="46" ry="12"/>
    <ellipse cx="56" cy="-102" rx="52" ry="13"/>
    <ellipse cx="4" cy="-112" rx="40" ry="11"/>
  </g>
  <g fill="#241709" transform="translate(1310 760) scale(1.35)">
    <path d="M0 0 L6 -70 L10 -70 L18 0 Z"/>
    <path d="M8 -70 L-52 -96 M8 -70 L64 -100 M8 -70 L4 -104" stroke="#241709" stroke-width="5" fill="none"/>
    <ellipse cx="-48" cy="-98" rx="46" ry="12"/>
    <ellipse cx="56" cy="-102" rx="52" ry="13"/>
    <ellipse cx="4" cy="-112" rx="40" ry="11"/>
  </g>
  <g fill="#2A1B0E" transform="translate(760 745) scale(0.9)">
    <path d="M0 0 L6 -70 L10 -70 L18 0 Z"/>
    <path d="M8 -70 L-52 -96 M8 -70 L64 -100 M8 -70 L4 -104" stroke="#2A1B0E" stroke-width="5" fill="none"/>
    <ellipse cx="-48" cy="-98" rx="46" ry="12"/>
    <ellipse cx="56" cy="-102" rx="52" ry="13"/>
    <ellipse cx="4" cy="-112" rx="40" ry="11"/>
  </g>
</svg>