<svg xmlns="http://www.w3.org/2000/svg" width="1600" height="1000" viewBox="0 0 1600 1000" role="img" aria-label="Illustrative placeholder — replace with licensed photography">
  <defs><linearGradient id="g3" x1="0" y1="0" x2="0" y2="1"><stop offset="0%" stop-color="#F3E9D2"/><stop offset="50%" stop-color="#E4CFA3"/><stop offset="100%" stop-color="#D9B98C"/></linearGradient></defs>
  <rect width="1600" height="1000" fill="url(#g3)"/>
  <circle cx="1240" cy="240" r="100" fill="#E9B44C" opacity="0.65"/>
  <path d="M0 480 Q 100 399.19916431179183 200 492.32033427528324 Q 300 438.4422306422379 400 476.6231077431048 Q 500 472.1541541906378 600 463.13833832374485 Q 700 478.2477081912604 800 460.7009167234958 Q 900 452.7305452828633 1000 470.9077818868547 Q 1100 412.32088573450085 1200 487.07164570619966 Q 1300 383.4941489238086 1400 498.60234043047654 Q 1500 385.1369068952293 1600 497.9452372419083 Q 1700 416.1728648540209 1800 485.53085405839164 L 1600 1000 L 0 1000 Z" fill="#8B9678" opacity="0.65"/>
  <rect x="0" y="600" width="1600" height="400" fill="#B99A6B"/>
  <path d="M0 720 C 360 660 620 780 900 720 C 1180 660 1420 740 1600 700 L1600 1000 L0 1000 Z" fill="#7C8FA0"/>
  <path d="M0 770 q 60 -14 120 0 q 60 -14 120 0 q 60 -14 120 0 q 60 -14 120 0 q 60 -14 120 0 q 60 -14 120 0 q 60 -14 120 0 q 60 -14 120 0 q 60 -14 120 0 q 60 -14 120 0 q 60 -14 120 0 q 60 -14 120 0 q 60 -14 120 0 q 60 -14 120 0" stroke="#F7F2E9" stroke-width="5" fill="none" opacity="0.5"/><path d="M0 816 q 60 14 120 0 q 60 14 120 0 q 60 14 120 0 q 60 14 120 0 q 60 14 120 0 q 60 14 120 0 q 60 14 120 0 q 60 14 120 0 q 60 14 120 0 q 60 14 120 0 q 60 14 120 0 q 60 14 120 0 q 60 14 120 0 q 60 14 120 0" stroke="#F7F2E9" stroke-width="5" fill="none" opacity="0.38"/><path d="M0 862 q 60 -14 120 0 q 60 -14 120 0 q 60 -14 120 0 q 60 -14 120 0 q 60 -14 120 0 q 60 -14 120 0 q 60 -14 120 0 q 60 -14 120 0 q 60 -14 120 0 q 60 -14 120 0 q 60 -14 120 0 q 60 -14 120 0 q 60 -14 120 0 q 60 -14 120 0" stroke="#F7F2E9" stroke-width="5" fill="none" opacity="0.26"/>
  <g fill="#2E3B2C" transform="translate(180 660) scale(1.2)">
    <path d="M0 0 L6 -70 L10 -70 L18 0 Z"/>
    <path d="M8 -70 L-52 -96 M8 -70 L64 -100 M8 -70 L4 -104" stroke="#2E3B2C" stroke-width="5" fill="none"/>
    <ellipse cx="-48" cy="-98" rx="46" ry="12"/>
    <ellipse cx="56" cy="-102" rx="52" ry="13"/>
    <ellipse cx="4" cy="-112" rx="40" ry="11"/>
  </g>
  <g fill="#2E3B2C" transform="translate(1380 650) scale(1.45)">
    <path d="M0 0 L6 -70 L10 -70 L18 0 Z"/>
    <path d="M8 -70 L-52 -96 M8 -70 L64 -100 M8 -70 L4 -104" stroke="#2E3B2C" stroke-width="5" fill="none"/>
    <ellipse cx="-48" cy="-98" rx="46" ry="12"/>
    <ellipse cx="56" cy="-102" rx="52" ry="13"/>
    <ellipse cx="4" cy="-112" rx="40" ry="11"/>
  </g>
  <g fill="#4A3A20" transform="translate(180 620) scale(0.9)">
    <ellipse cx="0" cy="0" rx="26" ry="12"/>
    <rect x="-22" y="6" width="6" height="18"/>
    <rect x="14" y="6" width="6" height="18"/>
    <path d="M20 -6 L36 -14 L38 -8 L26 0 Z"/>
    <path d="M34 -16 q 6 -6 10 -2"/>
  </g><g fill="#4A3A20" transform="translate(420 634) scale(1.02)">
    <ellipse cx="0" cy="0" rx="26" ry="12"/>
    <rect x="-22" y="6" width="6" height="18"/>
    <rect x="14" y="6" width="6" height="18"/>
    <path d="M20 -6 L36 -14 L38 -8 L26 0 Z"/>
    <path d="M34 -16 q 6 -6 10 -2"/>
  </g><g fill="#4A3A20" transform="translate(660 620) scale(1.1400000000000001)">
    <ellipse cx="0" cy="0" rx="26" ry="12"/>
    <rect x="-22" y="6" width="6" height="18"/>
    <rect x="14" y="6" width="6" height="18"/>
    <path d="M20 -6 L36 -14 L38 -8 L26 0 Z"/>
    <path d="M34 -16 q 6 -6 10 -2"/>
  </g><g fill="#4A3A20" transform="translate(780 634) scale(0.9)">
    <ellipse cx="0" cy="0" rx="26" ry="12"/>
    <rect x="-22" y="6" width="6" height="18"/>
    <rect x="14" y="6" width="6" height="18"/>
    <path d="M20 -6 L36 -14 L38 -8 L26 0 Z"/>
    <path d="M34 -16 q 6 -6 10 -2"/>
  </g><g fill="#4A3A20" transform="translate(1020 620) scale(1.02)">
    <ellipse cx="0" cy="0" rx="26" ry="12"/>
    <rect x="-22" y="6" width="6" height="18"/>
    <rect x="14" y="6" width="6" height="18"/>
    <path d="M20 -6 L36 -14 L38 -8 L26 0 Z"/>
    <path d="M34 -16 q 6 -6 10 -2"/>
  </g><g fill="#4A3A20" transform="translate(1260 634) scale(1.1400000000000001)">
    <ellipse cx="0" cy="0" rx="26" ry="12"/>
    <rect x="-22" y="6" width="6" height="18"/>
    <rect x="14" y="6" width="6" height="18"/>
    <path d="M20 -6 L36 -14 L38 -8 L26 0 Z"/>
    <path d="M34 -16 q 6 -6 10 -2"/>
  </g><g fill="#4A3A20" transform="translate(1380 620) scale(0.9)">
    <ellipse cx="0" cy="0" rx="26" ry="12"/>
    <rect x="-22" y="6" width="6" height="18"/>
    <rect x="14" y="6" width="6" height="18"/>
    <path d="M20 -6 L36 -14 L38 -8 L26 0 Z"/>
    <path d="M34 -16 q 6 -6 10 -2"/>
  </g>
</svg>