<svg xmlns="http://www.w3.org/2000/svg" width="1600" height="1000" viewBox="0 0 1600 1000" role="img" aria-label="Illustrative placeholder — replace with licensed photography">
  <defs><linearGradient id="g19" x1="0" y1="0" x2="0" y2="1"><stop offset="0%" stop-color="#3A4A3A"/><stop offset="50%" stop-color="#2E3B2C"/><stop offset="100%" stop-color="#232D22"/></linearGradient></defs>
  <rect width="1600" height="1000" fill="url(#g19)"/>
  <circle cx="1250" cy="200" r="80" fill="#F7F2E9" opacity="0.9"/>
  <rect x="60" y="580" width="120" height="200" fill="#1A2016"/><rect x="200" y="460" width="90" height="320" fill="#1A2016"/><rect x="310" y="620" width="140" height="160" fill="#1A2016"/><rect x="470" y="520" width="110" height="260" fill="#1A2016"/><rect x="600" y="400" width="100" height="380" fill="#1A2016"/><rect x="720" y="560" width="150" height="220" fill="#1A2016"/><rect x="880" y="480" width="120" height="300" fill="#1A2016"/><rect x="1020" y="600" width="100" height="180" fill="#1A2016"/><rect x="1140" y="440" width="130" height="340" fill="#1A2016"/><rect x="1290" y="540" width="110" height="240" fill="#1A2016"/><rect x="1420" y="620" width="140" height="160" fill="#1A2016"/><rect x="74" y="598" width="10" height="14" fill="#E9B44C" opacity="0.55"/><rect x="109.29411764705883" y="638" width="10" height="14" fill="#E9B44C" opacity="0.55"/><rect x="144.58823529411765" y="678" width="10" height="14" fill="#E9B44C" opacity="0.55"/><rect x="74" y="718" width="10" height="14" fill="#E9B44C" opacity="0.55"/><rect x="240.47058823529412" y="478" width="10" height="14" fill="#E9B44C" opacity="0.55"/><rect x="266.94117647058823" y="542" width="10" height="14" fill="#E9B44C" opacity="0.55"/><rect x="214" y="606" width="10" height="14" fill="#E9B44C" opacity="0.55"/><rect x="240.47058823529412" y="670" width="10" height="14" fill="#E9B44C" opacity="0.55"/><rect x="406.3529411764706" y="638" width="10" height="14" fill="#E9B44C" opacity="0.55"/><rect x="324" y="670" width="10" height="14" fill="#E9B44C" opacity="0.55"/><rect x="365.1764705882353" y="702" width="10" height="14" fill="#E9B44C" opacity="0.55"/><rect x="406.3529411764706" y="734" width="10" height="14" fill="#E9B44C" opacity="0.55"/><rect x="484" y="538" width="10" height="14" fill="#E9B44C" opacity="0.55"/><rect x="516.3529411764706" y="590" width="10" height="14" fill="#E9B44C" opacity="0.55"/><rect x="548.7058823529412" y="642" width="10" height="14" fill="#E9B44C" opacity="0.55"/><rect x="484" y="694" width="10" height="14" fill="#E9B44C" opacity="0.55"/><rect x="643.4117647058823" y="418" width="10" height="14" fill="#E9B44C" opacity="0.55"/><rect x="672.8235294117648" y="494" width="10" height="14" fill="#E9B44C" opacity="0.55"/><rect x="614" y="570" width="10" height="14" fill="#E9B44C" opacity="0.55"/><rect x="643.4117647058823" y="646" width="10" height="14" fill="#E9B44C" opacity="0.55"/><rect x="822.2352941176471" y="578" width="10" height="14" fill="#E9B44C" opacity="0.55"/><rect x="734" y="622" width="10" height="14" fill="#E9B44C" opacity="0.55"/><rect x="778.1176470588235" y="666" width="10" height="14" fill="#E9B44C" opacity="0.55"/><rect x="822.2352941176471" y="710" width="10" height="14" fill="#E9B44C" opacity="0.55"/><rect x="894" y="498" width="10" height="14" fill="#E9B44C" opacity="0.55"/><rect x="929.2941176470588" y="558" width="10" height="14" fill="#E9B44C" opacity="0.55"/><rect x="964.5882352941177" y="618" width="10" height="14" fill="#E9B44C" opacity="0.55"/><rect x="894" y="678" width="10" height="14" fill="#E9B44C" opacity="0.55"/><rect x="1063.4117647058824" y="618" width="10" height="14" fill="#E9B44C" opacity="0.55"/><rect x="1092.8235294117646" y="654" width="10" height="14" fill="#E9B44C" opacity="0.55"/><rect x="1034" y="690" width="10" height="14" fill="#E9B44C" opacity="0.55"/><rect x="1063.4117647058824" y="726" width="10" height="14" fill="#E9B44C" opacity="0.55"/><rect x="1230.4705882352941" y="458" width="10" height="14" fill="#E9B44C" opacity="0.55"/><rect x="1154" y="526" width="10" height="14" fill="#E9B44C" opacity="0.55"/><rect x="1192.235294117647" y="594" width="10" height="14" fill="#E9B44C" opacity="0.55"/><rect x="1230.4705882352941" y="662" width="10" height="14" fill="#E9B44C" opacity="0.55"/><rect x="1304" y="558" width="10" height="14" fill="#E9B44C" opacity="0.55"/><rect x="1336.3529411764705" y="606" width="10" height="14" fill="#E9B44C" opacity="0.55"/><rect x="1368.7058823529412" y="654" width="10" height="14" fill="#E9B44C" opacity="0.55"/><rect x="1304" y="702" width="10" height="14" fill="#E9B44C" opacity="0.55"/><rect x="1475.1764705882354" y="638" width="10" height="14" fill="#E9B44C" opacity="0.55"/><rect x="1516.3529411764705" y="670" width="10" height="14" fill="#E9B44C" opacity="0.55"/><rect x="1434" y="702" width="10" height="14" fill="#E9B44C" opacity="0.55"/><rect x="1475.1764705882354" y="734" width="10" height="14" fill="#E9B44C" opacity="0.55"/>
  <rect x="0" y="780" width="1600" height="220" fill="#141A11"/>
  <g transform="translate(640 500)"><rect x="0" y="0" width="330" height="280" fill="#232D22"/><rect x="24" y="24" width="60" height="70" fill="#E9B44C" opacity="0.75"/><rect x="132" y="24" width="60" height="70" fill="#E9B44C" opacity="0.45"/><rect x="240" y="24" width="60" height="70" fill="#E9B44C" opacity="0.7"/><rect x="24" y="120" width="60" height="70" fill="#E9B44C" opacity="0.5"/><rect x="132" y="120" width="60" height="70" fill="#E9B44C" opacity="0.8"/><rect x="240" y="120" width="60" height="70" fill="#E9B44C" opacity="0.4"/><rect x="120" y="216" width="90" height="64" fill="#D9C39A"/></g>
</svg>