<svg xmlns="http://www.w3.org/2000/svg" width="1600" height="1000" viewBox="0 0 1600 1000" role="img" aria-label="Illustrative placeholder — replace with licensed photography">
  <defs><linearGradient id="g18" x1="0" y1="0" x2="0" y2="1"><stop offset="0%" stop-color="#E9B44C"/><stop offset="50%" stop-color="#D97B3F"/><stop offset="100%" stop-color="#B4531F"/></linearGradient></defs>
  <rect width="1600" height="1000" fill="url(#g18)"/>
  <circle cx="1150" cy="500" r="210" fill="#E9B44C" opacity="0.9"/>
  <g fill="#241709" transform="translate(560 330) scale(2.2) rotate(-12)">
    <path d="M0 0 L150 0 Q170 0 176 8 Q170 16 150 16 L0 16 Q-14 8 0 0 Z"/>
    <path d="M60 4 L28 -44 L44 -44 L88 4 Z"/>
    <path d="M60 12 L36 48 L50 48 L88 12 Z"/>
    <path d="M142 2 L128 -22 L140 -22 L158 2 Z"/>
  </g>
  <path d="M0 700 Q 100 645.9610316822818 200 707.6155873270873 Q 300 673.9359605686338 400 696.4256157725465 Q 500 696.0562669157014 600 687.5774932337195 Q 700 697.8292676906266 800 686.8682929237493 Q 900 678.093336203212 1000 694.7626655187152 Q 1100 649.7789714672476 1200 706.088411413101 Q 1300 631.4370518908647 1400 713.4251792436542 Q 1500 635.0847540205406 1600 711.9660983917838 Q 1700 658.3321927464431 1800 702.6671229014228 L 1600 1000 L 0 1000 Z" fill="#7A4A28" opacity="0.7"/>
  <rect x="0" y="790" width="1600" height="210" fill="#4A2F17"/>
  <rect x="380" y="890" width="840" height="12" rx="6" fill="#2A1B0E"/>
  <g stroke="#26221B" stroke-width="3" fill="none" opacity="0.75">
    <path d="M300 220 q 8 -8 16 0 q 8 -8 16 0"/>
    <path d="M360 194 q 7 -7 14 0 q 7 -7 14 0"/>
    <path d="M250 180 q 6 -6 12 0 q 6 -6 12 0"/>
  </g>
</svg>