<svg xmlns="http://www.w3.org/2000/svg" width="1600" height="1000" viewBox="0 0 1600 1000" role="img" aria-label="Illustrative placeholder — replace with licensed photography">
  <defs><linearGradient id="g21" x1="0" y1="0" x2="0" y2="1"><stop offset="0%" stop-color="#3A4A3A"/><stop offset="50%" stop-color="#2E3B2C"/><stop offset="100%" stop-color="#232D22"/></linearGradient></defs>
  <rect width="1600" height="1000" fill="url(#g21)"/>
  <circle cx="380" cy="190" r="66" fill="#F7F2E9" opacity="0.85"/>
  <rect x="60" y="620" width="120" height="200" fill="#1A2016"/><rect x="200" y="500" width="90" height="320" fill="#1A2016"/><rect x="310" y="660" width="140" height="160" fill="#1A2016"/><rect x="470" y="560" width="110" height="260" fill="#1A2016"/><rect x="600" y="440" width="100" height="380" fill="#1A2016"/><rect x="720" y="600" width="150" height="220" fill="#1A2016"/><rect x="880" y="520" width="120" height="300" fill="#1A2016"/><rect x="1020" y="640" width="100" height="180" fill="#1A2016"/><rect x="1140" y="480" width="130" height="340" fill="#1A2016"/><rect x="1290" y="580" width="110" height="240" fill="#1A2016"/><rect x="1420" y="660" width="140" height="160" fill="#1A2016"/><rect x="74" y="638" width="10" height="14" fill="#E9B44C" opacity="0.55"/><rect x="109.29411764705883" y="678" width="10" height="14" fill="#E9B44C" opacity="0.55"/><rect x="144.58823529411765" y="718" width="10" height="14" fill="#E9B44C" opacity="0.55"/><rect x="74" y="758" width="10" height="14" fill="#E9B44C" opacity="0.55"/><rect x="240.47058823529412" y="518" width="10" height="14" fill="#E9B44C" opacity="0.55"/><rect x="266.94117647058823" y="582" width="10" height="14" fill="#E9B44C" opacity="0.55"/><rect x="214" y="646" width="10" height="14" fill="#E9B44C" opacity="0.55"/><rect x="240.47058823529412" y="710" width="10" height="14" fill="#E9B44C" opacity="0.55"/><rect x="406.3529411764706" y="678" width="10" height="14" fill="#E9B44C" opacity="0.55"/><rect x="324" y="710" width="10" height="14" fill="#E9B44C" opacity="0.55"/><rect x="365.1764705882353" y="742" width="10" height="14" fill="#E9B44C" opacity="0.55"/><rect x="406.3529411764706" y="774" width="10" height="14" fill="#E9B44C" opacity="0.55"/><rect x="484" y="578" width="10" height="14" fill="#E9B44C" opacity="0.55"/><rect x="516.3529411764706" y="630" width="10" height="14" fill="#E9B44C" opacity="0.55"/><rect x="548.7058823529412" y="682" width="10" height="14" fill="#E9B44C" opacity="0.55"/><rect x="484" y="734" width="10" height="14" fill="#E9B44C" opacity="0.55"/><rect x="643.4117647058823" y="458" width="10" height="14" fill="#E9B44C" opacity="0.55"/><rect x="672.8235294117648" y="534" width="10" height="14" fill="#E9B44C" opacity="0.55"/><rect x="614" y="610" width="10" height="14" fill="#E9B44C" opacity="0.55"/><rect x="643.4117647058823" y="686" width="10" height="14" fill="#E9B44C" opacity="0.55"/><rect x="822.2352941176471" y="618" width="10" height="14" fill="#E9B44C" opacity="0.55"/><rect x="734" y="662" width="10" height="14" fill="#E9B44C" opacity="0.55"/><rect x="778.1176470588235" y="706" width="10" height="14" fill="#E9B44C" opacity="0.55"/><rect x="822.2352941176471" y="750" width="10" height="14" fill="#E9B44C" opacity="0.55"/><rect x="894" y="538" width="10" height="14" fill="#E9B44C" opacity="0.55"/><rect x="929.2941176470588" y="598" width="10" height="14" fill="#E9B44C" opacity="0.55"/><rect x="964.5882352941177" y="658" width="10" height="14" fill="#E9B44C" opacity="0.55"/><rect x="894" y="718" width="10" height="14" fill="#E9B44C" opacity="0.55"/><rect x="1063.4117647058824" y="658" width="10" height="14" fill="#E9B44C" opacity="0.55"/><rect x="1092.8235294117646" y="694" width="10" height="14" fill="#E9B44C" opacity="0.55"/><rect x="1034" y="730" width="10" height="14" fill="#E9B44C" opacity="0.55"/><rect x="1063.4117647058824" y="766" width="10" height="14" fill="#E9B44C" opacity="0.55"/><rect x="1230.4705882352941" y="498" width="10" height="14" fill="#E9B44C" opacity="0.55"/><rect x="1154" y="566" width="10" height="14" fill="#E9B44C" opacity="0.55"/><rect x="1192.235294117647" y="634" width="10" height="14" fill="#E9B44C" opacity="0.55"/><rect x="1230.4705882352941" y="702" width="10" height="14" fill="#E9B44C" opacity="0.55"/><rect x="1304" y="598" width="10" height="14" fill="#E9B44C" opacity="0.55"/><rect x="1336.3529411764705" y="646" width="10" height="14" fill="#E9B44C" opacity="0.55"/><rect x="1368.7058823529412" y="694" width="10" height="14" fill="#E9B44C" opacity="0.55"/><rect x="1304" y="742" width="10" height="14" fill="#E9B44C" opacity="0.55"/><rect x="1475.1764705882354" y="678" width="10" height="14" fill="#E9B44C" opacity="0.55"/><rect x="1516.3529411764705" y="710" width="10" height="14" fill="#E9B44C" opacity="0.55"/><rect x="1434" y="742" width="10" height="14" fill="#E9B44C" opacity="0.55"/><rect x="1475.1764705882354" y="774" width="10" height="14" fill="#E9B44C" opacity="0.55"/>
  <g fill="#101510" transform="translate(1020 240) scale(1.1) rotate(-12)">
    <path d="M0 0 L150 0 Q170 0 176 8 Q170 16 150 16 L0 16 Q-14 8 0 0 Z"/>
    <path d="M60 4 L28 -44 L44 -44 L88 4 Z"/>
    <path d="M60 12 L36 48 L50 48 L88 12 Z"/>
    <path d="M142 2 L128 -22 L140 -22 L158 2 Z"/>
  </g>
  <rect x="0" y="820" width="1600" height="180" fill="#141A11"/>
</svg>