<svg xmlns="http://www.w3.org/2000/svg" width="1600" height="1000" viewBox="0 0 1600 1000" role="img" aria-label="Illustrative placeholder — replace with licensed photography">
  <defs><linearGradient id="g20" x1="0" y1="0" x2="0" y2="1"><stop offset="0%" stop-color="#F3E9D2"/><stop offset="50%" stop-color="#E4CFA3"/><stop offset="100%" stop-color="#D9B98C"/></linearGradient></defs>
  <rect width="1600" height="1000" fill="url(#g20)"/>
  <circle cx="300" cy="230" r="100" fill="#E9B44C" opacity="0.65"/>
  <rect x="60" y="400" width="120" height="200" fill="#8B967855"/><rect x="200" y="280" width="90" height="320" fill="#8B967855"/><rect x="310" y="440" width="140" height="160" fill="#8B967855"/><rect x="470" y="340" width="110" height="260" fill="#8B967855"/><rect x="600" y="220" width="100" height="380" fill="#8B967855"/><rect x="720" y="380" width="150" height="220" fill="#8B967855"/><rect x="880" y="300" width="120" height="300" fill="#8B967855"/><rect x="1020" y="420" width="100" height="180" fill="#8B967855"/><rect x="1140" y="260" width="130" height="340" fill="#8B967855"/><rect x="1290" y="360" width="110" height="240" fill="#8B967855"/><rect x="1420" y="440" width="140" height="160" fill="#8B967855"/><rect x="74" y="418" width="10" height="14" fill="#E9B44C" opacity="0.55"/><rect x="109.29411764705883" y="458" width="10" height="14" fill="#E9B44C" opacity="0.55"/><rect x="144.58823529411765" y="498" width="10" height="14" fill="#E9B44C" opacity="0.55"/><rect x="74" y="538" width="10" height="14" fill="#E9B44C" opacity="0.55"/><rect x="240.47058823529412" y="298" width="10" height="14" fill="#E9B44C" opacity="0.55"/><rect x="266.94117647058823" y="362" width="10" height="14" fill="#E9B44C" opacity="0.55"/><rect x="214" y="426" width="10" height="14" fill="#E9B44C" opacity="0.55"/><rect x="240.47058823529412" y="490" width="10" height="14" fill="#E9B44C" opacity="0.55"/><rect x="406.3529411764706" y="458" width="10" height="14" fill="#E9B44C" opacity="0.55"/><rect x="324" y="490" width="10" height="14" fill="#E9B44C" opacity="0.55"/><rect x="365.1764705882353" y="522" width="10" height="14" fill="#E9B44C" opacity="0.55"/><rect x="406.3529411764706" y="554" width="10" height="14" fill="#E9B44C" opacity="0.55"/><rect x="484" y="358" width="10" height="14" fill="#E9B44C" opacity="0.55"/><rect x="516.3529411764706" y="410" width="10" height="14" fill="#E9B44C" opacity="0.55"/><rect x="548.7058823529412" y="462" width="10" height="14" fill="#E9B44C" opacity="0.55"/><rect x="484" y="514" width="10" height="14" fill="#E9B44C" opacity="0.55"/><rect x="643.4117647058823" y="238" width="10" height="14" fill="#E9B44C" opacity="0.55"/><rect x="672.8235294117648" y="314" width="10" height="14" fill="#E9B44C" opacity="0.55"/><rect x="614" y="390" width="10" height="14" fill="#E9B44C" opacity="0.55"/><rect x="643.4117647058823" y="466" width="10" height="14" fill="#E9B44C" opacity="0.55"/><rect x="822.2352941176471" y="398" width="10" height="14" fill="#E9B44C" opacity="0.55"/><rect x="734" y="442" width="10" height="14" fill="#E9B44C" opacity="0.55"/><rect x="778.1176470588235" y="486" width="10" height="14" fill="#E9B44C" opacity="0.55"/><rect x="822.2352941176471" y="530" width="10" height="14" fill="#E9B44C" opacity="0.55"/><rect x="894" y="318" width="10" height="14" fill="#E9B44C" opacity="0.55"/><rect x="929.2941176470588" y="378" width="10" height="14" fill="#E9B44C" opacity="0.55"/><rect x="964.5882352941177" y="438" width="10" height="14" fill="#E9B44C" opacity="0.55"/><rect x="894" y="498" width="10" height="14" fill="#E9B44C" opacity="0.55"/><rect x="1063.4117647058824" y="438" width="10" height="14" fill="#E9B44C" opacity="0.55"/><rect x="1092.8235294117646" y="474" width="10" height="14" fill="#E9B44C" opacity="0.55"/><rect x="1034" y="510" width="10" height="14" fill="#E9B44C" opacity="0.55"/><rect x="1063.4117647058824" y="546" width="10" height="14" fill="#E9B44C" opacity="0.55"/><rect x="1230.4705882352941" y="278" width="10" height="14" fill="#E9B44C" opacity="0.55"/><rect x="1154" y="346" width="10" height="14" fill="#E9B44C" opacity="0.55"/><rect x="1192.235294117647" y="414" width="10" height="14" fill="#E9B44C" opacity="0.55"/><rect x="1230.4705882352941" y="482" width="10" height="14" fill="#E9B44C" opacity="0.55"/><rect x="1304" y="378" width="10" height="14" fill="#E9B44C" opacity="0.55"/><rect x="1336.3529411764705" y="426" width="10" height="14" fill="#E9B44C" opacity="0.55"/><rect x="1368.7058823529412" y="474" width="10" height="14" fill="#E9B44C" opacity="0.55"/><rect x="1304" y="522" width="10" height="14" fill="#E9B44C" opacity="0.55"/><rect x="1475.1764705882354" y="458" width="10" height="14" fill="#E9B44C" opacity="0.55"/><rect x="1516.3529411764705" y="490" width="10" height="14" fill="#E9B44C" opacity="0.55"/><rect x="1434" y="522" width="10" height="14" fill="#E9B44C" opacity="0.55"/><rect x="1475.1764705882354" y="554" width="10" height="14" fill="#E9B44C" opacity="0.55"/>
  <rect x="0" y="640" width="1600" height="360" fill="#B7A374"/>
  <rect x="0" y="810" width="1600" height="26" fill="#6E5638"/>
  <rect x="0" y="820" width="70" height="6" fill="#F7F2E9" opacity="0.6"/><rect x="140" y="820" width="70" height="6" fill="#F7F2E9" opacity="0.6"/><rect x="280" y="820" width="70" height="6" fill="#F7F2E9" opacity="0.6"/><rect x="420" y="820" width="70" height="6" fill="#F7F2E9" opacity="0.6"/><rect x="560" y="820" width="70" height="6" fill="#F7F2E9" opacity="0.6"/><rect x="700" y="820" width="70" height="6" fill="#F7F2E9" opacity="0.6"/><rect x="840" y="820" width="70" height="6" fill="#F7F2E9" opacity="0.6"/><rect x="980" y="820" width="70" height="6" fill="#F7F2E9" opacity="0.6"/><rect x="1120" y="820" width="70" height="6" fill="#F7F2E9" opacity="0.6"/><rect x="1260" y="820" width="70" height="6" fill="#F7F2E9" opacity="0.6"/><rect x="1400" y="820" width="70" height="6" fill="#F7F2E9" opacity="0.6"/>
  <g transform="translate(620 760) scale(1.5)">
    <rect x="0" y="0" width="150" height="52" rx="9" fill="#2E3B2C"/>
    <rect x="14" y="-26" width="108" height="30" rx="6" fill="#2E3B2C"/>
    <rect x="22" y="-20" width="26" height="18" rx="3" fill="#F7F2E9" opacity="0.85"/>
    <rect x="56" y="-20" width="26" height="18" rx="3" fill="#F7F2E9" opacity="0.85"/>
    <rect x="90" y="-20" width="24" height="18" rx="3" fill="#F7F2E9" opacity="0.85"/>
    <rect x="10" y="-34" width="116" height="10" rx="4" fill="#26221B"/>
    <circle cx="36" cy="56" r="17" fill="#26221B"/>
    <circle cx="114" cy="56" r="17" fill="#26221B"/>
    <circle cx="36" cy="56" r="7" fill="#D9C39A"/>
    <circle cx="114" cy="56" r="7" fill="#D9C39A"/>
  </g>
  <g stroke="#26221B" stroke-width="3" fill="none" opacity="0.75">
    <path d="M1150 230 q 8 -8 16 0 q 8 -8 16 0"/>
    <path d="M1210 204 q 7 -7 14 0 q 7 -7 14 0"/>
    <path d="M1100 190 q 6 -6 12 0 q 6 -6 12 0"/>
  </g>
</svg>